<svg width="653" height="652" viewBox="0 0 653 652" fill="none" xmlns="http://www.w3.org/2000/svg">
<path d="M102.656 133.667C106.752 128.655 111.064 124.85 115.591 122.252C120.106 119.53 123.565 119.15 125.969 121.114C128.372 123.077 130.601 126.445 132.656 131.216C134.699 135.863 135.215 138.804 134.205 140.04C133.925 140.383 133.417 140.655 132.681 140.855C131.932 140.93 130.678 141.623 128.92 142.934C127.149 144.121 125.786 145.298 124.833 146.465C121.579 150.447 120.349 154.824 121.144 159.596C121.995 164.299 125.339 169.036 131.175 173.805C136.942 178.518 142.243 180.788 147.078 180.617C151.969 180.377 155.985 178.335 159.127 174.49C160.418 172.911 161.642 170.992 162.801 168.733C163.948 166.349 164.446 164.408 164.295 162.911C164.27 162.661 164.426 162.331 164.763 161.919C165.099 161.507 166.506 161.397 168.983 161.589C171.447 161.656 174.342 162.247 177.668 163.362C180.925 164.42 183.24 165.511 184.613 166.633C187.291 168.821 187.736 172.62 185.949 178.03C184.162 183.44 180.968 188.96 176.367 194.589C168.961 203.652 159.681 208.493 148.527 209.111C137.373 209.729 125.994 205.297 114.391 195.815C102.719 186.277 95.9937 175.8 94.2152 164.385C92.4927 152.901 95.3064 142.661 102.656 133.667Z" fill="#F1C945"/>
<path d="M254.822 136.929C248.013 140.555 243.751 141.417 242.037 139.518L230.099 126.436L211.433 136.374L215.779 152.744C216.601 155.42 213.49 158.634 206.447 162.384C202.69 164.384 199.807 165.668 197.799 166.235C195.749 166.723 194.661 166.85 194.536 166.616L173 76.0741C172.667 75.448 177.861 72.2805 188.584 66.5718C199.306 60.8631 204.834 58.3218 205.167 58.948L267.855 127.73C268.147 128.278 266.576 129.667 263.142 131.897C259.709 134.127 256.935 135.804 254.822 136.929ZM206.43 119.902L218.757 113.339L200.536 91.8504L199.831 92.2254L206.43 119.902Z" fill="#F1C945"/>
<path d="M317.736 122.536C317.933 124.298 313.669 125.666 304.945 126.64C296.222 127.614 291.761 127.219 291.565 125.457L284.159 59.1028L268.298 60.8731C266.8 61.0403 265.516 59.1315 264.447 55.1469C263.966 53.2378 263.612 51.2698 263.386 49.2431C263.16 47.2163 263.071 45.2189 263.119 43.2507C263.283 39.1284 264.115 36.9836 265.613 36.8164L323.111 30.3993C324.609 30.2321 325.892 32.1408 326.962 36.1255C327.442 38.0346 327.796 40.0025 328.022 42.0293C328.248 44.056 328.337 46.0535 328.289 48.0216C328.125 52.144 327.294 54.2887 325.796 54.4559L310.331 56.1819L317.736 122.536Z" fill="#F1C945"/>
<path d="M409.555 46.1542C410.007 44.4395 414.863 44.8027 424.122 47.244C433.468 49.7078 437.914 51.7971 437.462 53.5119L421.899 112.542C419.594 121.287 414.577 127.621 406.849 131.544C399.143 135.381 389.76 135.841 378.7 132.925C367.726 130.032 359.512 124.841 354.06 117.351C348.715 109.798 347.32 101.178 349.874 91.4895L364.895 34.5173C365.347 32.8025 370.203 33.1658 379.462 35.6071C388.808 38.0709 393.254 40.1602 392.802 41.875L377.51 99.876C377.058 101.591 377.597 103.2 379.126 104.703C380.741 106.23 382.577 107.264 384.635 107.806C386.693 108.349 388.661 108.363 390.538 107.85C392.502 107.359 393.732 106.17 394.229 104.284L409.555 46.1542Z" fill="#F1C945"/>
<path d="M427.651 141.421L476.646 78.4328C478.007 76.6831 479.488 75.645 481.09 75.3184C482.816 74.9763 484.38 75.3496 485.779 76.4384L503.311 90.0753C514.439 98.7311 520.695 108.09 522.079 118.153C523.533 128.271 519.578 139.348 510.214 151.386C490.181 177.141 469.176 181.472 447.2 164.378L429.249 150.415C425.679 147.639 425.147 144.641 427.651 141.421ZM485.696 108.388L461.281 139.778C460.137 141.247 459.508 142.274 459.391 142.857C459.329 143.37 459.822 144.035 460.872 144.852C464.722 147.846 468.742 148.671 472.934 147.325C477.195 146.035 481.912 142.065 487.084 135.416C492.31 128.697 494.662 123.507 494.141 119.844C493.69 116.235 491.225 112.689 486.746 109.205L485.696 108.388Z" fill="#F1C945"/>
<path d="M586.294 194.902C589.564 194.39 593.693 198.581 598.68 207.475C599.937 209.718 601.257 212.434 602.639 215.624C604.064 218.891 604.479 220.539 603.885 220.567L541.864 223.625L513.557 239.495C512.243 240.233 510.122 238.626 507.196 234.676C505.672 232.684 504.325 230.644 503.154 228.556C501.983 226.467 500.929 224.314 499.99 222.096C498.146 217.539 497.921 214.87 499.313 214.089L526.923 198.609L561.895 146.218C562.186 145.649 563.5 146.996 565.838 150.259C568.253 153.479 570.133 156.288 571.477 158.686C576.811 168.199 578.346 174.2 576.082 176.689L557.164 198.426L586.294 194.902Z" fill="#F1C945"/>
<path d="M551.294 307.244L598.627 306.05L598.389 296.61C598.351 295.104 600.23 293.992 604.026 293.275C605.881 292.963 607.783 292.782 609.733 292.732C611.683 292.683 613.592 292.768 615.46 292.987C619.287 293.511 621.22 294.527 621.258 296.034L622.384 340.708C622.422 342.215 620.542 343.282 616.744 343.91C614.892 344.311 612.99 344.537 611.04 344.586C609.09 344.635 607.18 344.506 605.31 344.198C601.485 343.762 599.553 342.791 599.515 341.284L599.291 332.376L551.958 333.569L552.193 342.876C552.231 344.383 550.352 345.495 546.556 346.212C544.703 346.613 542.802 346.838 540.852 346.888C538.902 346.937 536.992 346.808 535.121 346.5C531.294 345.976 529.362 344.96 529.324 343.453L528.194 298.646C528.156 297.139 530.036 296.072 533.834 295.444C535.687 295.043 537.588 294.817 539.538 294.768C541.488 294.719 543.398 294.848 545.269 295.156C549.093 295.592 551.025 296.563 551.063 298.07L551.294 307.244Z" fill="#F1C945"/>
<path d="M558.629 369.831C556.869 371.059 554.296 373.292 550.91 376.53C547.498 379.853 545.254 383.297 544.177 386.862C543.075 390.512 543.924 392.76 546.725 393.606C547.998 393.99 549.256 393.814 550.497 393.078C551.823 392.367 553.533 390.845 555.626 388.514C557.72 386.182 559.311 384.44 560.401 383.287C561.575 382.159 563.314 380.693 565.619 378.889C567.983 377.195 570.236 376.023 572.377 375.373C578.241 373.439 584.907 373.6 592.377 375.855C599.846 378.111 605.294 382.767 608.721 389.822C612.206 396.988 612.591 405.07 609.873 414.067C608.028 420.178 605.644 425.618 602.722 430.385C599.885 435.178 597.38 437.339 595.207 436.868C594.952 436.791 594.697 436.714 594.443 436.638C591.472 435.74 587.977 433.666 583.957 430.414C580.022 427.188 577.916 425.116 577.637 424.199C582.079 419.612 584.954 415.155 586.261 410.826C587.543 406.582 586.656 403.998 583.6 403.075C581.733 402.511 579.603 403.582 577.212 406.287C576.667 406.863 575.906 407.698 574.927 408.792C573.948 409.886 572.791 411.111 571.455 412.467C570.178 413.934 568.622 415.409 566.784 416.892C565.006 418.485 562.766 420.078 560.062 421.669C554.459 424.886 548.178 425.443 541.218 423.341C532.136 420.598 525.465 415.851 521.206 409.1C516.946 402.349 516.308 393.728 519.292 383.236C520.83 378.143 522.651 373.646 524.756 369.743C526.835 365.925 529.567 362.86 532.952 360.548C536.336 358.235 539.768 357.605 543.248 358.656C546.729 359.707 549.974 361.382 552.985 363.68C556.08 366.005 557.962 368.055 558.629 369.831Z" fill="#F1C945"/>
<path d="M482.324 456.365C488.085 450.716 491.586 448.524 492.828 449.79L553.172 511.322C555.283 513.475 555.357 515.513 553.395 517.438L536.682 533.828C527.313 543.016 518.678 547.697 510.776 547.871C502.811 548.107 495.227 544.553 488.026 537.21C482.066 531.132 478.565 523.637 477.523 514.723C477.002 510.267 477.896 505.416 480.204 500.172C482.512 494.927 486.199 489.822 491.263 484.855L474.594 467.858C473.849 467.098 474.524 465.381 476.619 462.705C478.713 460.155 480.615 458.042 482.324 456.365ZM521.808 516.001L507.094 500.998L505.86 502.209C503.644 504.382 502.46 506.909 502.306 509.792C502.153 512.675 503.318 515.382 505.801 517.914C508.284 520.447 510.592 521.723 512.723 521.744C514.792 521.827 517.155 520.564 519.814 517.957L521.808 516.001Z" fill="#F1C945"/>
<path d="M429.667 600.076C430.335 601.719 426.233 604.343 417.362 607.949C408.409 611.589 403.598 612.587 402.931 610.944L379.941 554.392C376.536 546.013 376.746 537.936 380.571 530.159C384.431 522.465 391.658 516.464 402.254 512.157C412.768 507.883 422.453 507.104 431.31 509.821C440.119 512.653 446.409 518.71 450.183 527.992L472.37 582.573C473.038 584.216 468.937 586.84 460.065 590.447C451.112 594.086 446.302 595.084 445.634 593.442L423.045 537.874C422.378 536.232 420.981 535.268 418.855 534.983C416.648 534.732 414.558 535.008 412.587 535.809C410.615 536.61 409.033 537.78 407.84 539.318C406.564 540.889 406.294 542.578 407.028 544.385L429.667 600.076Z" fill="#F1C945"/>
<path d="M332.578 529.997C332.593 528.578 336.812 527.913 345.235 528C353.746 528.087 357.995 528.796 357.981 530.126L357.086 616.838C357.054 619.941 355.398 621.475 352.117 621.442L326.716 621.179C303.398 620.939 291.832 611.731 292.02 593.555C292.077 588.058 293.192 583.059 295.367 578.56C297.541 574.148 300.592 570.633 304.52 568.013L288.051 539.912C288.783 537.791 291.113 535.377 295.043 532.669C300.402 528.911 304.81 527.05 308.268 527.086C311.726 527.122 314.284 528.389 315.943 530.889L328.144 560.144L332.267 560.186L332.578 529.997ZM331.879 597.69L332.085 577.742L331.42 577.735C322.998 577.648 318.75 581.106 318.678 588.111C318.645 591.303 319.463 593.661 321.132 595.185C322.711 596.798 325.363 597.623 329.087 597.662L331.879 597.69Z" fill="#F1C945"/>
<path d="M255.756 517.109C256.302 515.799 260.462 516.767 268.236 520.01C276.092 523.288 279.763 525.541 279.251 526.768L245.859 606.797C244.664 609.661 242.553 610.461 239.525 609.198L216.081 599.416C194.56 590.436 187.299 577.559 194.298 560.784C196.415 555.711 199.326 551.497 203.032 548.143C206.703 544.871 210.851 542.759 215.475 541.806L210.765 509.577C212.239 507.886 215.305 506.524 219.964 505.489C226.342 504.019 231.127 503.95 234.318 505.282C237.51 506.613 239.405 508.749 240.003 511.689L240.325 543.384L244.13 544.972L255.756 517.109ZM229.688 579.585L237.37 561.174L236.756 560.918C228.982 557.674 223.747 559.284 221.049 565.749C219.82 568.695 219.693 571.188 220.667 573.227C221.526 575.315 223.673 577.076 227.11 578.51L229.688 579.585Z" fill="#F1C945"/>
<path d="M109.417 526.53C108.307 525.509 110.423 522.095 115.765 516.287C121.047 510.544 124.243 508.182 125.352 509.203L143.267 525.679L153.531 514.519L141.588 503.535C140.478 502.514 142.264 499.459 146.946 494.369C151.568 489.343 154.401 487.311 155.445 488.271L167.486 499.345L189.183 475.753C190.024 474.839 191.804 475.392 194.524 477.412C197.239 479.307 199.412 481.004 201.044 482.505L205.464 486.932C208.302 490.265 209.301 492.388 208.461 493.302L148.859 558.107C147.899 559.151 147.073 559.656 146.381 559.623C145.624 559.529 144.821 559.092 143.973 558.311L109.417 526.53Z" fill="#F1C945"/>
<path d="M93.919 437.251C93.0986 435.78 95.3987 433.533 100.82 430.51C102.446 429.603 104.49 428.717 106.951 427.852C109.292 426.953 110.722 426.968 111.24 427.897L119.467 442.649L131.083 436.172L119.164 414.798C118.43 413.482 119.637 411.641 122.785 409.276C124.127 408.224 125.65 407.222 127.354 406.272C128.98 405.365 131.239 404.41 134.131 403.406C137.023 402.403 138.771 402.443 139.376 403.527L161.529 443.254C163.17 446.197 162.79 448.337 160.39 449.676L85.6986 491.327C83.6851 492.449 82.1818 492.12 81.1886 490.339L57.9991 448.754C57.0922 447.127 60.0849 444.393 66.9771 440.549C73.7918 436.749 77.6526 435.662 78.5595 437.289L90.5429 458.778L102.275 452.236L93.919 437.251Z" fill="#F1C945"/>
<path d="M34.077 367.299C33.0287 360.912 33.0283 355.161 34.0759 350.047C35.0217 344.86 37.0257 342.015 40.0881 341.513C43.1504 341.01 47.1504 341.567 52.0879 343.182C56.9236 344.725 59.4707 346.284 59.7291 347.859C59.8009 348.296 59.6684 348.857 59.3314 349.541C58.8926 350.152 58.583 351.551 58.4027 353.737C58.1205 355.85 58.1015 357.65 58.3456 359.138C59.1785 364.212 61.6471 368.03 65.7514 370.591C69.8413 373.065 75.6049 373.691 83.0421 372.471C90.3917 371.265 95.6018 368.792 98.6721 365.053C101.728 361.227 102.854 356.864 102.05 351.965C101.72 349.952 101.091 347.764 100.164 345.4C99.1349 342.964 98.0093 341.306 96.7871 340.429C96.5834 340.282 96.4384 339.947 96.3523 339.422C96.2661 338.897 97.1143 337.769 98.897 336.039C100.578 334.236 102.936 332.456 105.973 330.7C108.921 328.958 111.271 327.943 113.021 327.656C116.433 327.096 119.576 329.276 122.45 334.195C125.324 339.115 127.35 345.162 128.528 352.336C130.423 363.886 127.913 374.047 120.996 382.819C114.08 391.592 103.228 397.192 88.4412 399.619C73.5668 402.06 61.2614 400.171 51.525 393.952C41.7742 387.645 35.9582 378.761 34.077 367.299Z" fill="#F1C945"/>
<path d="M129.437 275.911C131.18 276.239 131.241 280.716 129.621 289.343C128.001 297.97 126.319 302.12 124.576 301.793L58.9573 289.47L56.0117 305.156C55.7335 306.637 53.5328 307.307 49.4096 307.164C47.4434 307.065 45.4581 306.828 43.4538 306.452C41.4495 306.075 39.5133 305.576 37.6453 304.955C33.7512 303.592 31.9433 302.17 32.2215 300.688L42.8996 243.827C43.1778 242.346 45.3785 241.677 49.5016 241.819C51.4679 241.918 53.4531 242.155 55.4574 242.532C57.4617 242.908 59.3979 243.407 61.266 244.029C65.16 245.391 66.9679 246.814 66.6897 248.295L63.8177 263.589L129.437 275.911Z" fill="#F1C945"/>
</svg>
