<svg width="284" height="180" viewBox="0 0 284 180" fill="none" xmlns="http://www.w3.org/2000/svg">
<path fill-rule="evenodd" clip-rule="evenodd" d="M119.808 1C40.7937 1 25.1008 12.0559 14.0033 20.9006C-2.64287 34.1677 -2.53772 72.8634 9.9427 102.714C33.979 160.205 84.296 179 118.698 179C153.1 179 184.905 165.733 216.356 119.298C279.612 119.298 318.453 40.8012 236.331 15.3727C217.48 9.53548 210.582 8.36272 207.591 7.85414C207.084 7.76804 206.69 7.70098 206.368 7.63354C192.311 4.6853 153.1 1 119.808 1ZM236.5 43.5C236.5 54.4274 232.833 83.6717 228.5 92C243.667 94.4183 255.266 81.0045 256 67.6694C257 49.5 242.5 44.5 236.5 43.5Z" fill="black"/>
<path d="M14.0033 20.9006L14.315 21.2916L14.0033 20.9006ZM119.808 1L119.808 0.5H119.808V1ZM9.9427 102.714L10.404 102.521L10.404 102.521L9.9427 102.714ZM216.356 119.298V118.798H216.091L215.942 119.018L216.356 119.298ZM236.331 15.3727L236.479 14.895L236.479 14.895L236.331 15.3727ZM207.591 7.85414L207.507 8.34707L207.507 8.34707L207.591 7.85414ZM206.368 7.63354L206.471 7.14419L206.471 7.14419L206.368 7.63354ZM228.5 92L228.056 91.7692L227.736 92.3845L228.421 92.4938L228.5 92ZM236.5 43.5L236.582 43.0068L236 42.9098V43.5H236.5ZM256 67.6694L255.501 67.6419L255.501 67.6419L256 67.6694ZM14.315 21.2916C19.8252 16.8999 26.46 11.9655 41.5603 8.11806C56.6885 4.26352 80.3174 1.5 119.808 1.5V0.5C80.2841 0.5 56.5595 3.26443 41.3134 7.14902C26.0393 11.0407 19.2789 16.0566 13.6917 20.5096L14.315 21.2916ZM10.404 102.521C4.19051 87.6599 1.05826 70.5944 1.55026 55.6049C2.04319 40.5872 6.16671 27.7858 14.315 21.2916L13.6917 20.5096C5.19375 27.2825 1.04675 40.4625 0.550801 55.5721C0.0539319 70.7099 3.21446 87.9178 9.48139 102.907L10.404 102.521ZM118.698 178.5C84.4572 178.5 34.3481 159.791 10.404 102.521L9.48139 102.907C33.61 160.618 84.1347 179.5 118.698 179.5V178.5ZM215.942 119.018C200.247 142.189 184.487 157.053 168.388 166.127C152.294 175.198 135.83 178.5 118.698 178.5V179.5C135.968 179.5 152.608 176.169 168.879 166.998C185.146 157.829 201.013 142.842 216.77 119.579L215.942 119.018ZM236.184 15.8503C256.638 22.1839 269.491 31.8006 276.328 42.606C283.16 53.4034 284.019 65.4432 280.384 76.7177C273.105 99.2939 247.789 118.798 216.356 118.798V119.798C248.179 119.798 273.911 100.054 281.336 77.0246C285.053 65.4963 284.179 53.1439 277.173 42.0714C270.173 31.0068 257.086 21.2757 236.479 14.895L236.184 15.8503ZM207.507 8.34707C210.474 8.85144 217.35 10.0186 236.184 15.8503L236.479 14.895C217.61 9.05235 210.691 7.87401 207.675 7.36122L207.507 8.34707ZM206.266 8.12289C206.599 8.19275 207.004 8.26157 207.507 8.34707L207.675 7.36122C207.165 7.27452 206.781 7.20921 206.471 7.14419L206.266 8.12289ZM119.808 1.5C153.082 1.5 192.255 5.18438 206.266 8.12289L206.471 7.14419C192.368 4.18622 153.119 0.500005 119.808 0.5L119.808 1.5ZM228.944 92.2308C230.058 90.0891 231.111 86.647 232.065 82.5587C233.022 78.4581 233.889 73.6663 234.619 68.7989C236.079 59.0701 237 48.9994 237 43.5H236C236 48.928 235.087 58.9432 233.631 68.6505C232.903 73.5011 232.04 78.2649 231.091 82.3314C230.139 86.4102 229.109 89.7468 228.056 91.7692L228.944 92.2308ZM255.501 67.6419C255.141 74.1813 252.113 80.7505 247.315 85.3825C242.524 90.0076 235.985 92.6872 228.579 91.5062L228.421 92.4938C236.181 93.7311 243.026 90.9129 248.01 86.102C252.986 81.2979 256.125 74.4927 256.499 67.6969L255.501 67.6419ZM236.418 43.9932C239.365 44.4843 244.392 45.9592 248.549 49.5257C252.684 53.0726 255.992 58.7157 255.501 67.6419L256.499 67.6969C257.008 58.4537 253.566 52.5121 249.201 48.7667C244.858 45.0408 239.635 43.5157 236.582 43.0068L236.418 43.9932Z" fill="black"/>
<ellipse cx="118.5" cy="35.5" rx="78.5" ry="12.5" fill="#E1BFB1"/>
<path d="M57.9855 76.6487C59.6536 78.4203 60.8613 80.2133 61.6085 82.0279C62.4029 83.844 62.3753 85.1519 61.526 85.9517C60.6766 86.7515 59.3125 87.4179 57.4335 87.9509C55.6018 88.4854 54.4802 88.5342 54.0689 88.0974C53.9546 87.9761 53.8782 87.7733 53.8395 87.4892C53.848 87.2065 53.6509 86.7054 53.2481 85.9858C52.8923 85.2677 52.5203 84.7024 52.1318 84.2898C50.8064 82.8823 49.2349 82.2102 47.4173 82.2735C45.6225 82.361 43.6937 83.376 41.631 85.3183C39.5925 87.2379 38.4871 89.1029 38.3147 90.9134C38.1653 92.7483 38.7304 94.3452 40.0101 95.7041C40.5356 96.2623 41.1912 96.8126 41.9766 97.355C42.8092 97.8988 43.5082 98.1792 44.0736 98.1962C44.1678 98.199 44.2835 98.2732 44.4206 98.4188C44.5577 98.5644 44.53 99.0942 44.3375 100.008C44.1921 100.923 43.8304 101.974 43.2524 103.159C42.6987 104.321 42.1791 105.131 41.6938 105.588C40.7473 106.479 39.3095 106.46 37.3803 105.529C35.451 104.599 33.5495 103.138 31.6757 101.148C28.6593 97.9451 27.3083 94.2495 27.6228 90.0615C27.9374 85.8736 30.1452 81.8487 34.2465 77.9868C38.372 74.102 42.6058 72.107 46.9478 72.0017C51.3127 71.9206 54.9919 73.4696 57.9855 76.6487Z" fill="white"/>
<path d="M70.2496 128.178C67.6848 126.825 66.5171 125.681 66.7464 124.746L68.2976 118.272L61.2667 114.561L57.0905 119.368C56.4313 120.188 54.7751 119.898 52.122 118.498C50.7069 117.751 49.6993 117.125 49.099 116.62C48.5144 116.085 48.2454 115.774 48.292 115.685L71.9181 89.8792C72.0426 89.6434 74.1242 90.5912 78.1629 92.7227C82.2016 94.8541 84.1588 96.0378 84.0343 96.2736L75.8618 130.292C75.7529 130.498 74.9893 130.303 73.571 129.705C72.1527 129.107 71.0455 128.598 70.2496 128.178ZM65.336 109.529L69.979 111.979L72.8199 101.775L72.5546 101.635L65.336 109.529Z" fill="white"/>
<path d="M102.835 136.407C102.722 137.065 101.04 137.115 97.787 136.558C94.5343 136.001 92.9642 135.394 93.0766 134.737L97.3108 109.997L91.3968 108.985C90.8382 108.889 90.5733 108.066 90.602 106.515C90.6271 105.776 90.7043 105.028 90.8337 104.272C90.963 103.517 91.1388 102.786 91.3611 102.08C91.8497 100.608 92.3733 99.9198 92.9319 100.015L114.37 103.684C114.929 103.78 115.194 104.603 115.165 106.154C115.14 106.894 115.063 107.641 114.933 108.397C114.804 109.153 114.628 109.883 114.406 110.589C113.917 112.061 113.394 112.75 112.835 112.654L107.069 111.667L102.835 136.407Z" fill="white"/>
<path d="M133.6 103.277C133.505 102.617 135.24 102.032 138.804 101.523C142.401 101.008 144.246 101.081 144.341 101.741L147.589 124.46C148.07 127.826 147.26 130.753 145.157 133.243C143.051 135.699 139.869 137.231 135.612 137.84C131.388 138.444 127.784 137.848 124.8 136.052C121.844 134.219 120.1 131.438 119.567 127.709L116.432 105.782C116.337 105.122 118.072 104.537 121.636 104.028C125.232 103.514 127.078 103.586 127.172 104.246L130.364 126.569C130.458 127.229 130.88 127.708 131.63 128.005C132.412 128.297 133.2 128.386 133.992 128.273C134.784 128.16 135.467 127.877 136.042 127.424C136.65 126.967 136.902 126.375 136.799 125.649L133.6 103.277Z" fill="white"/>
<path d="M161.638 129.391L147.88 102.732C147.498 101.992 147.377 101.322 147.519 100.724C147.674 100.081 148.048 99.6067 148.641 99.301L156.061 95.4715C160.771 93.0409 164.952 92.3836 168.603 93.4997C172.285 94.6006 175.44 97.6984 178.07 102.793C183.696 113.694 181.858 121.544 172.557 126.344L164.959 130.266C163.448 131.045 162.341 130.754 161.638 129.391ZM159.529 104.372L166.386 117.657C166.707 118.279 166.957 118.656 167.138 118.788C167.303 118.89 167.608 118.827 168.052 118.597C169.682 117.757 170.597 116.515 170.8 114.873C171.032 113.215 170.422 110.979 168.97 108.165C167.502 105.321 166.103 103.699 164.771 103.299C163.468 102.883 161.869 103.164 159.974 104.143L159.529 104.372Z" fill="white"/>
<path d="M185.413 75.7359C184.871 74.6156 185.927 72.6721 188.58 69.9055C189.249 69.2079 190.082 68.4361 191.078 67.5901C192.097 66.7201 192.644 66.3904 192.719 66.601L200.605 88.5736L209.41 97.0183C209.819 97.4105 209.473 98.349 208.372 99.8336C207.822 100.6 207.236 101.307 206.613 101.957C205.99 102.606 205.331 103.221 204.636 103.802C203.198 104.963 202.263 105.336 201.83 104.921L193.242 96.6841L170.572 89.8374C170.336 89.7952 170.676 89.1752 171.594 87.9772C172.488 86.7562 173.293 85.7728 174.008 85.027C176.846 82.068 178.837 80.8594 179.98 81.4014L189.868 85.8274L185.413 75.7359Z" fill="white"/>
</svg>
