<svg id="visual" viewBox="0 0 900 300" width="900" height="300" xmlns="http://www.w3.org/2000/svg" xmlns:xlink="http://www.w3.org/1999/xlink" version="1.1"><path d="M0 210L25 219.5C50 229 100 248 150 253.3C200 258.7 250 250.3 300 247.7C350 245 400 248 450 246C500 244 550 237 600 231.2C650 225.3 700 220.7 750 222C800 223.3 850 230.7 875 234.3L900 238L900 301L875 301C850 301 800 301 750 301C700 301 650 301 600 301C550 301 500 301 450 301C400 301 350 301 300 301C250 301 200 301 150 301C100 301 50 301 25 301L0 301Z" fill="#4F6062" stroke-linecap="round" stroke-linejoin="miter"></path></svg>