<svg width="900" height="48" viewBox="0 0 900 48" fill="none" xmlns="http://www.w3.org/2000/svg">
<path fill-rule="evenodd" clip-rule="evenodd" d="M900 0H-0.00012207V48H900L900 35L875 29.1667C850 23.3333 800 11.6667 750 8.41228C714.796 6.07769 679.592 7.94376 644.388 9.80983C629.592 10.5941 614.796 11.3784 600 11.8508C573.364 12.734 546.729 12.6239 520.093 12.5139C496.729 12.4173 473.364 12.3208 450 12.8947C409.677 13.885 369.355 16.8721 329.032 19.8592C319.355 20.5761 309.677 21.293 300 21.9823C250 25.6051 200 28.4297 150 27.6314C101.541 26.8577 53.0826 22.5659 27.3825 20.2896L27.3824 20.2896L24.9999 20.0787L-7.81822e-05 17.8068L-7.66254e-05 2.8131e-05L900 0.000156403L900 0Z" fill="#E2DED8"/>
</svg>
