<svg width="496" height="468" viewBox="0 0 496 468" fill="none" xmlns="http://www.w3.org/2000/svg">
<path d="M365.185 1.12524C364.256 2.24875 364.14 2.75239 363.598 7.67257C363.289 10.462 361.856 14.1424 359.34 18.5589C356.708 23.2467 354.695 26.0361 348.115 34.443C337.044 48.5062 332.747 56.6419 330.541 67.567C329.302 73.7657 328.915 79.6156 328.567 97.7854C328.141 119.442 327.638 123.471 324.27 131.878C322.064 137.418 318.812 142.919 305.187 164.421C298.529 174.842 291.561 185.884 289.665 188.944C285.523 195.569 284.478 196.848 277.355 204.092C266.091 215.482 255.756 224.432 232.221 243.027C208.725 261.585 192.854 275.222 188.054 280.917C184.957 284.597 183.68 285.721 181.087 286.999C175.048 290.021 169.513 290.447 128.249 290.912C110.792 291.106 93.5662 291.454 89.9276 291.687C72.3925 292.772 64.4573 294.864 47.5415 302.728C17.1165 316.908 -1.03789 333.915 0.0459532 347.165C0.587875 353.518 4.30391 355.572 10.6909 353.015C15.5294 351.078 19.0519 348.714 28.0711 341.237C35.9289 334.729 42.0449 330.661 49.2834 327.135C58.0316 322.874 65.3476 320.511 75.4118 318.651C90.7018 315.862 105.218 315.242 134.52 316.094C163.629 316.946 172.919 318.806 179.19 325.005C182.48 328.259 184.454 332.404 187.086 341.47C190.454 353.208 190.88 359.291 188.519 364.25C186.196 369.247 181.745 372.734 168.893 379.63C158.945 384.977 157.319 385.984 154.92 388.386C150.739 392.57 149.229 397.8 147.255 414.924C144.042 442.43 146.752 455.292 157.049 461.53C161.152 464.048 174.158 467.961 178.3 467.961C181.899 467.961 184.648 466.179 186.39 462.808C187.783 460.019 187.938 457.462 186.854 454.595C186.119 452.619 185.383 451.689 182.016 448.396C177.371 443.902 176.132 441.694 175.784 437.471C175.242 430.382 179.964 421.084 189.68 410.236C199.667 399.078 212.596 390.362 225.602 386.061C231.756 384.008 234.892 383.466 241.472 383.233C246.582 383.078 247.975 383.156 250.956 383.814C257.459 385.286 264.349 388.347 265.743 390.439C267.368 392.88 266.943 394.739 261.407 408.454C259.433 413.374 257.498 418.372 257.111 419.534C256.104 422.595 256.22 426.236 257.304 428.445C258.427 430.575 261.446 434.372 264.736 437.781C275.458 448.745 295.587 459.322 313.083 463.196C316.838 464.048 327.289 464.126 329.457 463.351C331.818 462.537 332.438 461.142 332.438 456.648C332.438 449.675 330.696 443.864 327.986 441.772C326.051 440.299 321.909 439.021 316.296 438.091C306.077 436.464 303.677 435.65 302.167 433.171C301.006 431.311 300.89 427.282 301.626 414.691C301.974 408.725 302.322 402.178 302.438 400.163C302.826 393.345 304.142 359.058 304.761 339.339C305.109 328.569 305.496 319.193 305.574 318.496C305.729 317.411 309.445 313.46 328.335 294.089C363.753 257.788 369.753 252.132 375.675 249.226C377.649 248.258 378.346 248.103 381.211 248.141C383.998 248.18 385.159 248.413 388.565 249.614C397.391 252.79 401.262 254.844 404.9 258.292C408.887 262.088 410.668 265.769 412.178 273.285C414.113 283.241 416.823 287.813 420.694 287.813C426.887 287.813 442.216 273.44 442.487 267.396C442.525 265.575 441.596 263.87 437.609 258.485C433.003 252.325 428.784 247.522 414.732 232.412C410.049 227.415 405.404 222.417 404.359 221.332L402.462 219.395L411.674 216.606C422.165 213.429 424.564 212.848 430.1 212.073C448.254 209.555 473.879 211.221 486.189 215.792C491.066 217.574 492.885 217.226 494.472 214.204C495.556 212.189 495.44 206.107 494.318 202C491.763 192.935 484.718 183.327 478.563 180.46C473.105 177.903 466.951 177.167 445.661 176.624C426.229 176.121 420.577 175.656 415.197 174.068C409.816 172.44 406.758 169.651 404.978 164.653C403.855 161.593 403.468 157.641 403.468 148.924C403.468 133.35 404.359 131.878 416.707 127.268C426.229 123.704 430.874 121.069 434.706 117.079C438.887 112.662 440.59 107.781 440.551 99.9162C440.551 89.456 437.145 75.4703 428.319 49.3585C419.145 22.3556 414.268 11.3143 410.629 9.45468C408.694 8.4474 407.494 9.37719 405.558 13.4451C402.655 19.5275 399.713 21.5808 394.294 21.1934C392.165 21.0384 390.927 20.651 388.333 19.3725C384.424 17.4354 381.598 14.801 378.269 10.0358C375.404 5.89045 371.417 1.66763 369.521 0.699087C367.469 -0.346935 366.347 -0.23071 365.185 1.12524Z" fill="#1B1A1A"/>
<path d="M397.729 71.4605C397.341 73.119 396.77 74.4899 396.017 75.573C395.28 76.6868 394.528 77.105 393.76 76.8276C392.992 76.5502 392.109 75.8987 391.111 74.8732C390.13 73.8783 389.687 73.1763 389.783 72.7674C389.81 72.6538 389.896 72.5373 390.043 72.4178C390.207 72.3291 390.418 72.0358 390.678 71.5381C390.953 71.071 391.137 70.6444 391.227 70.2581C391.535 68.9404 391.335 67.7101 390.627 66.5672C389.913 65.4471 388.623 64.5502 386.758 63.8765C384.915 63.2107 383.447 63.1243 382.356 63.6173C381.26 64.133 380.563 65.027 380.265 66.2993C380.143 66.8219 380.073 67.425 380.056 68.1087C380.055 68.8231 380.155 69.3641 380.354 69.7318C380.388 69.7931 380.388 69.8919 380.356 70.0283C380.325 70.1646 380.014 70.3234 379.424 70.5046C378.851 70.7165 378.121 70.8348 377.234 70.8596C376.37 70.8924 375.718 70.8295 375.279 70.671C374.423 70.3619 373.903 69.4346 373.717 67.8891C373.531 66.3437 373.656 64.6394 374.092 62.7764C374.793 59.7774 376.391 57.6808 378.883 56.4867C381.376 55.2926 384.477 55.3653 388.186 56.7047C391.917 58.052 394.615 60.0984 396.282 62.8438C397.943 65.612 398.425 68.4842 397.729 71.4605Z" fill="#F1C945"/>
<path d="M367.541 88.5628C368.094 86.6094 368.696 85.6748 369.347 85.759L373.857 86.3155L375.372 80.9605L371.615 78.3806C370.981 77.9787 370.95 76.7674 371.521 74.7466C371.826 73.6689 372.106 72.8934 372.36 72.4201C372.636 71.9554 372.807 71.736 372.872 71.7618L393.205 86.4761C393.378 86.5451 393.03 88.1176 392.16 91.1936C391.29 94.2696 390.768 95.7731 390.595 95.7041L366.895 92.7645C366.744 92.7042 366.77 92.1404 366.976 91.0731C367.181 90.0058 367.37 89.169 367.541 88.5628ZM379.264 83.4445L378.264 86.9808L385.425 88.1416L385.482 87.9396L379.264 83.4445Z" fill="#F1C945"/>
<path d="M363.098 104.42C362.67 104.234 362.82 103.045 363.547 100.853C364.273 98.6599 364.851 97.6563 365.279 97.8418L381.402 104.826L382.723 100.839C382.848 100.463 383.429 100.41 384.465 100.682C384.958 100.819 385.451 100.995 385.943 101.208C386.436 101.422 386.906 101.663 387.355 101.934C388.289 102.516 388.693 102.995 388.568 103.371L383.777 117.823C383.652 118.199 383.072 118.252 382.036 117.98C381.542 117.842 381.05 117.667 380.557 117.454C380.065 117.24 379.594 116.998 379.145 116.728C378.212 116.146 377.807 115.667 377.932 115.291L379.221 111.404L363.098 104.42Z" fill="#F1C945"/>
<path d="M377.588 132.289C378.011 132.487 377.773 133.763 376.876 136.118C375.97 138.494 375.306 139.584 374.883 139.386L360.338 132.566C358.183 131.555 356.722 129.932 355.956 127.697C355.21 125.471 355.373 122.952 356.445 120.139C357.509 117.348 359.074 115.397 361.142 114.284C363.222 113.204 365.456 113.223 367.843 114.343L381.881 120.925C382.304 121.123 382.067 122.399 381.169 124.754C380.263 127.131 379.599 128.22 379.177 128.022L364.885 121.321C364.462 121.123 364.037 121.193 363.609 121.532C363.173 121.893 362.855 122.335 362.655 122.858C362.456 123.382 362.393 123.905 362.468 124.428C362.534 124.973 362.8 125.355 363.264 125.573L377.588 132.289Z" fill="#F1C945"/>
<path d="M353.851 132.122L372.571 141.638C373.091 141.903 373.44 142.237 373.619 142.642C373.81 143.078 373.812 143.51 373.625 143.938L371.285 149.294C369.799 152.694 367.841 154.847 365.411 155.755C362.972 156.684 359.964 156.239 356.386 154.42C348.732 150.529 346.371 145.226 349.305 138.512L351.701 133.028C352.177 131.937 352.894 131.635 353.851 132.122ZM365.637 145.639L356.308 140.897C355.871 140.675 355.577 140.564 355.424 140.565C355.292 140.576 355.156 140.742 355.015 141.063C354.502 142.239 354.54 143.343 355.132 144.375C355.713 145.429 356.992 146.458 358.968 147.462C360.965 148.477 362.405 148.817 363.289 148.483C364.163 148.169 364.899 147.328 365.497 145.96L365.637 145.639Z" fill="#F1C945"/>
<path d="M358.841 172.984C359.422 173.649 359.117 175.184 357.926 177.588C357.625 178.195 357.232 178.883 356.746 179.654C356.25 180.445 355.956 180.776 355.865 180.645L346.272 167.081L338.786 162.971C338.439 162.781 338.478 162.071 338.905 160.842C339.113 160.212 339.357 159.615 339.636 159.05C339.916 158.486 340.227 157.938 340.568 157.407C341.28 156.336 341.821 155.901 342.189 156.103L349.491 160.112L365.779 160.478C365.943 160.461 365.843 160.952 365.479 161.949C365.136 162.957 364.804 163.785 364.482 164.433C363.208 167.005 362.141 168.214 361.28 168.061L353.887 166.914L358.841 172.984Z" fill="#F1C945"/>
<path d="M333.658 183.161L344.318 189.613L345.562 187.462C345.76 187.119 346.33 187.136 347.27 187.514C347.724 187.707 348.171 187.937 348.61 188.203C349.049 188.468 349.461 188.758 349.845 189.073C350.621 189.734 350.91 190.236 350.712 190.579L344.824 200.759C344.625 201.102 344.062 201.075 343.133 200.676C342.667 200.504 342.215 200.284 341.775 200.018C341.336 199.752 340.931 199.452 340.558 199.118C339.77 198.477 339.475 197.985 339.674 197.642L340.848 195.612L330.188 189.16L328.962 191.28C328.763 191.624 328.194 191.606 327.254 191.228C326.788 191.055 326.335 190.836 325.896 190.57C325.457 190.304 325.051 190.004 324.679 189.669C323.902 189.008 323.613 188.506 323.812 188.163L329.717 177.953C329.916 177.61 330.48 177.637 331.408 178.035C331.874 178.208 332.326 178.428 332.766 178.694C333.205 178.959 333.611 179.26 333.983 179.594C334.771 180.235 335.066 180.727 334.867 181.07L333.658 183.161Z" fill="#F1C945"/>
<path d="M328.022 197.623C327.49 197.808 326.682 198.19 325.597 198.769C324.499 199.368 323.688 200.081 323.164 200.909C322.627 201.757 322.682 202.388 323.33 202.804C323.625 202.993 323.955 203.039 324.321 202.941C324.706 202.856 325.246 202.592 325.94 202.151C326.634 201.709 327.16 201.381 327.517 201.167C327.893 200.965 328.437 200.717 329.147 200.425C329.864 200.164 330.517 200.028 331.104 200.017C332.723 199.947 334.396 200.467 336.124 201.576C337.852 202.685 338.899 204.259 339.266 206.296C339.639 208.366 339.164 210.445 337.84 212.535C336.941 213.954 335.954 215.164 334.878 216.164C333.821 217.177 333.035 217.546 332.519 217.271C332.461 217.233 332.402 217.195 332.343 217.157C331.655 216.716 330.919 215.938 330.133 214.824C329.367 213.722 328.982 213.045 328.976 212.792C330.424 211.946 331.466 211.021 332.103 210.016C332.727 209.03 332.686 208.311 331.979 207.857C331.547 207.58 330.933 207.699 330.137 208.214C329.959 208.321 329.707 208.478 329.382 208.686C329.057 208.893 328.678 209.121 328.245 209.369C327.818 209.65 327.32 209.913 326.751 210.157C326.189 210.434 325.51 210.678 324.714 210.888C323.07 211.302 321.443 210.992 319.833 209.959C317.732 208.61 316.382 206.926 315.784 204.906C315.185 202.886 315.635 200.651 317.131 198.201C317.881 197.019 318.659 196.008 319.468 195.168C320.263 194.348 321.171 193.766 322.19 193.422C323.209 193.078 324.121 193.164 324.926 193.681C325.731 194.198 326.433 194.856 327.031 195.656C327.648 196.468 327.979 197.124 328.022 197.623Z" fill="#F1C945"/>
<path d="M303.91 218.208C305.161 216.492 305.978 215.769 306.359 216.037L324.904 229.093C325.553 229.55 325.664 230.07 325.238 230.655L321.608 235.631C319.573 238.421 317.526 240.019 315.469 240.425C313.397 240.85 311.255 240.284 309.042 238.725C307.21 237.436 305.957 235.67 305.284 233.426C304.947 232.305 304.962 231.017 305.329 229.564C305.696 228.11 306.43 226.629 307.53 225.121L302.407 221.515C302.178 221.354 302.277 220.881 302.704 220.098C303.137 219.347 303.539 218.717 303.91 218.208ZM316.917 231.73L312.395 228.547L312.127 228.914C311.646 229.574 311.45 230.278 311.54 231.026C311.629 231.774 312.056 232.416 312.819 232.953C313.582 233.491 314.243 233.713 314.801 233.621C315.345 233.548 315.906 233.115 316.484 232.324L316.917 231.73Z" fill="#F1C945"/>
<path d="M305.932 254.733C306.305 255.013 305.703 256.136 304.124 258.1C302.532 260.083 301.549 260.934 301.175 260.654L288.327 251.01C286.424 249.582 285.399 247.748 285.252 245.51C285.125 243.285 286.004 241 287.889 238.653C289.759 236.325 291.902 234.886 294.318 234.337C296.737 233.82 299.001 234.353 301.11 235.936L313.51 245.244C313.883 245.524 313.281 246.646 311.703 248.611C310.11 250.594 309.127 251.445 308.754 251.165L296.129 241.689C295.756 241.409 295.304 241.376 294.773 241.59C294.228 241.822 293.78 242.156 293.429 242.593C293.078 243.029 292.867 243.498 292.794 243.997C292.707 244.515 292.869 244.928 293.28 245.236L305.932 254.733Z" fill="#F1C945"/>
<path d="M276.563 253.232C276.271 252.999 276.86 252.052 278.328 250.391C279.812 248.713 280.691 247.983 280.964 248.202L298.78 262.462C299.417 262.973 299.45 263.551 298.878 264.198L294.45 269.206C290.384 273.803 286.485 274.607 282.75 271.618C281.621 270.714 280.777 269.68 280.219 268.517C279.679 267.368 279.476 266.191 279.61 264.984L270.95 263.695C270.637 263.205 270.537 262.35 270.653 261.129C270.797 259.453 271.17 258.274 271.773 257.592C272.376 256.911 273.079 256.608 273.883 256.684L282.047 259.009L282.765 258.197L276.563 253.232ZM290.471 264.364L286.372 261.084L286.256 261.215C284.788 262.875 284.773 264.282 286.212 265.433C286.868 265.958 287.498 266.179 288.101 266.094C288.707 266.042 289.335 265.649 289.984 264.915L290.471 264.364Z" fill="#F1C945"/>
<path d="M262.603 268.213C262.319 267.97 262.948 267.054 264.492 265.463C266.052 263.855 266.965 263.165 267.231 263.392L284.602 278.191C285.224 278.721 285.234 279.295 284.633 279.915L279.978 284.713C275.704 289.117 271.747 289.768 268.106 286.666C267.005 285.728 266.196 284.672 265.68 283.499C265.182 282.34 265.024 281.165 265.206 279.975L256.541 278.373C256.244 277.876 256.178 277.024 256.343 275.818C256.554 274.163 256.976 273.009 257.61 272.356C258.244 271.702 258.963 271.429 259.77 271.534L267.895 274.144L268.651 273.365L262.603 268.213ZM276.164 279.766L272.167 276.361L272.045 276.487C270.502 278.078 270.432 279.471 271.835 280.666C272.474 281.211 273.099 281.453 273.71 281.392C274.322 281.363 274.969 280.997 275.652 280.293L276.164 279.766Z" fill="#F1C945"/>
<path d="M261.093 303.065C260.805 303.337 259.89 302.778 258.348 301.387C256.824 300.012 256.206 299.188 256.494 298.915L261.145 294.511L258.182 291.838L255.081 294.774C254.793 295.047 253.974 294.574 252.622 293.355C251.288 292.151 250.757 291.421 251.028 291.164L254.154 288.205L247.891 282.554C247.649 282.335 247.815 281.89 248.389 281.218C248.929 280.546 249.411 280.01 249.835 279.609L251.081 278.524C252.016 277.832 252.604 277.595 252.847 277.814L270.05 293.335C270.327 293.585 270.458 293.797 270.443 293.972C270.411 294.162 270.285 294.362 270.065 294.57L261.093 303.065Z" fill="#F1C945"/>
<path d="M241.757 307.142C241.423 307.434 240.664 307.017 239.481 305.891C239.126 305.553 238.748 305.113 238.346 304.569C237.943 304.057 237.846 303.709 238.057 303.525L241.403 300.599L238.868 298.185L234.02 302.425C233.722 302.686 233.148 302.509 232.299 301.893C231.925 301.634 231.552 301.327 231.181 300.973C230.826 300.635 230.414 300.147 229.944 299.508C229.475 298.868 229.363 298.441 229.609 298.226L238.619 290.346C239.287 289.762 239.883 289.72 240.406 290.219L256.707 305.735C257.147 306.153 257.165 306.539 256.761 306.892L247.329 315.141C246.96 315.464 246.024 314.909 244.519 313.477C243.032 312.062 242.473 311.192 242.842 310.87L247.716 306.607L245.155 304.17L241.757 307.142Z" fill="#F1C945"/>
<path d="M235.398 325.207C234.07 326.274 232.734 327.035 231.388 327.491C230.041 327.978 229.079 327.932 228.504 327.352C227.929 326.772 227.46 325.854 227.096 324.598C226.731 323.374 226.712 322.63 227.04 322.367C227.131 322.294 227.281 322.247 227.491 322.228C227.698 322.24 228.07 322.12 228.605 321.869C229.138 321.648 229.56 321.414 229.869 321.166C230.924 320.318 231.442 319.292 231.423 318.086C231.386 316.896 230.669 315.597 229.272 314.188C227.892 312.797 226.537 312.025 225.209 311.872C223.862 311.733 222.679 312.073 221.661 312.891C221.242 313.228 220.828 313.65 220.417 314.159C220.004 314.698 219.788 315.155 219.766 315.529C219.763 315.592 219.707 315.667 219.598 315.754C219.488 315.842 219.099 315.812 218.43 315.665C217.76 315.549 216.993 315.287 216.13 314.879C215.284 314.487 214.696 314.125 214.368 313.794C213.727 313.148 213.763 312.196 214.477 310.938C215.19 309.681 216.293 308.453 217.784 307.254C220.185 305.325 222.923 304.51 225.998 304.808C229.072 305.107 231.998 306.656 234.775 309.455C237.569 312.271 238.971 315.118 238.983 317.996C238.976 320.889 237.781 323.293 235.398 325.207Z" fill="#F1C945"/>
<path d="M201.909 320.261C201.59 319.92 202.36 319.064 204.22 317.693C206.079 316.323 207.168 315.807 207.487 316.148L219.496 328.973L222.877 326.481C223.196 326.245 223.788 326.471 224.654 327.157C225.061 327.49 225.448 327.853 225.815 328.245C226.181 328.636 226.512 329.04 226.807 329.456C227.409 330.337 227.55 330.895 227.231 331.13L214.977 340.165C214.657 340.401 214.065 340.175 213.2 339.489C212.793 339.155 212.406 338.793 212.039 338.401C211.672 338.009 211.342 337.605 211.047 337.189C210.445 336.309 210.303 335.751 210.623 335.516L213.919 333.085L201.909 320.261Z" fill="#F1C945"/>
</svg>
