<svg width="132" height="191" viewBox="0 0 132 191" fill="none" xmlns="http://www.w3.org/2000/svg">
<path d="M62.43 0.926932C62.4134 0.943563 56.6706 1.01009 49.6831 1.07661C34.9112 1.19303 29.517 1.27618 24.7037 1.50902C22.795 1.59217 19.4589 1.70859 17.3178 1.75848C10.9942 1.89153 10.3468 2.29068 10.0979 6.21559C9.9651 8.47741 9.51697 9.79126 8.53771 10.7725C8.12277 11.1883 7.55846 11.6373 7.2763 11.7704C7.01074 11.92 6.5626 12.2028 6.31364 12.419C6.06467 12.6352 5.58335 12.8514 5.2348 12.9013C3.45886 13.2006 1.61653 13.7494 1.21819 14.0987C0.952626 14.3149 0.687065 14.7806 0.58748 15.1797C0.404907 15.8782 0.222333 22.3976 0.189138 29.2495C0.172541 32.1932 0.205736 32.6755 0.454699 32.9084C0.670468 33.1412 1.20159 33.1911 3.52525 33.241L6.31364 33.3075L6.66219 34.4218C6.91115 35.2034 7.09372 36.5007 7.2763 38.9122C7.40908 40.7748 7.64144 43.3693 7.79082 44.6499C8.03978 46.9117 8.13937 48.0093 8.50452 51.9841C8.6041 52.982 8.75348 54.562 8.83647 55.4767C8.93605 56.3914 9.11863 58.3705 9.25141 59.8839C9.40078 61.3973 9.58336 63.3431 9.68294 64.2079C9.9485 66.7525 10.3137 70.4279 10.5128 72.8561C10.6124 74.0868 10.8448 76.5648 11.0273 78.3443C11.3593 81.4543 11.6249 84.1652 11.741 85.5788C11.7742 85.9447 11.8904 86.8428 11.99 87.5745C12.0896 88.3063 12.4049 91.3331 12.6871 94.3101C12.9527 97.287 13.2846 100.829 13.4174 102.21C13.5502 103.574 13.6996 105.187 13.7493 105.785C13.7991 106.384 13.9153 107.532 13.9983 108.363C14.1643 109.843 14.3469 112.371 14.6622 117.51C14.8448 120.421 15.0108 122.283 15.4091 125.826C15.5585 127.106 15.7245 129.019 15.8074 130.083C15.8738 131.148 15.99 132.096 16.0564 132.196C16.1062 132.295 16.239 133.742 16.322 135.422C16.4216 137.102 16.6871 140.328 16.9029 142.623C17.1352 144.902 17.4008 148.078 17.4838 149.675C17.5834 151.255 17.6996 152.618 17.7328 152.702C17.8323 152.851 17.9153 153.633 18.0647 155.845C18.2141 158.157 18.4631 160.701 18.7286 162.58C18.8614 163.495 19.044 165.208 19.1436 166.406C19.2431 167.586 19.4423 169.316 19.5751 170.231C19.8075 171.761 20.0232 174.023 20.4714 179.71C20.8365 184.184 21.6498 188.641 22.2307 189.29C22.3635 189.439 22.712 189.622 23.0108 189.689C24.239 189.955 31.0606 190.371 38.1478 190.604C41.0689 190.687 44.1727 190.82 45.0357 190.87C47.1934 191.019 66.1312 191.053 70.0151 190.903C71.7578 190.853 75.6748 190.753 78.7288 190.703C81.7827 190.654 85.0691 190.57 86.0317 190.52C87.8409 190.421 88.3886 190.387 93.0857 190.105C104.903 189.406 110.729 188.458 111.625 187.078C111.808 186.812 111.99 185.465 112.239 182.704C112.438 180.509 112.737 177.332 112.92 175.636C113.102 173.939 113.335 171.544 113.418 170.314C113.501 169.083 113.683 166.904 113.833 165.491C113.965 164.077 114.165 161.982 114.248 160.834C114.347 159.687 114.497 157.857 114.596 156.76C114.679 155.662 114.828 153.716 114.911 152.435C114.994 151.155 115.144 149.176 115.243 148.028C115.343 146.881 115.443 145.234 115.476 144.369C115.542 142.457 115.824 139.064 116.156 136.137C116.289 134.94 116.505 132.445 116.654 130.566C117.019 125.859 117.55 119.606 117.65 119.007C117.7 118.724 117.799 117.194 117.899 115.598C117.999 114.001 118.214 110.775 118.397 108.446C118.563 106.118 118.795 102.975 118.895 101.461C118.994 99.948 119.177 97.5864 119.31 96.2226C119.443 94.8423 119.642 92.5139 119.725 91.0171C119.824 89.537 120.024 87.6244 120.156 86.7762C120.604 83.8658 121.019 79.9076 121.302 75.9328C121.451 73.7375 121.683 70.9269 121.816 69.6962C122.148 66.8024 122.347 64.2079 122.546 60.466C122.762 56.2084 123.028 52.3667 123.194 50.82C123.277 50.0882 123.393 48.7411 123.459 47.8264C123.509 46.9117 123.658 44.8494 123.791 43.2529C123.924 41.6563 124.107 39.2947 124.206 38.0141C124.355 36.2678 124.505 35.3531 124.853 34.3553L125.302 33.0248L127.575 32.925C130.48 32.7753 130.596 32.7421 130.995 31.9604C131.293 31.3949 131.31 31.1787 131.177 29.8483C131.094 29.0333 131.011 26.6052 130.995 24.4598C130.995 22.3144 130.928 19.2044 130.862 17.5413C130.746 14.8305 130.696 14.4812 130.364 13.9158C129.849 13.1008 128.92 12.6518 127.127 12.3857C125.202 12.0863 124.057 11.5375 122.829 10.2569C121.418 8.81003 121.152 8.22795 120.638 5.58362C119.924 1.82501 119.891 1.77511 118.779 1.49239C117.285 1.10987 108.837 0.960194 86.2475 0.910301C73.1852 0.89367 62.4632 0.89367 62.43 0.926932Z" fill="#1B1A1A"/>
<path d="M30.3263 82.6376C31.6719 82.8524 32.8361 83.2361 33.819 83.7888C34.8217 84.3257 35.2973 84.9198 35.2456 85.5711C35.1939 86.2224 34.8809 86.9921 34.3065 87.8803C33.7519 88.7528 33.3087 89.1626 32.9769 89.1096C32.8848 89.0949 32.7779 89.0307 32.6562 88.9171C32.5545 88.7878 32.2868 88.632 31.8533 88.4497C31.4397 88.2518 31.0762 88.1278 30.7628 88.0778C29.6937 87.9071 28.797 88.1503 28.0729 88.8073C27.3672 89.4673 26.9517 90.5881 26.8262 92.1698C26.7023 93.7329 26.9418 94.9489 27.5449 95.8177C28.1664 96.6896 28.9933 97.2078 30.0256 97.3726C30.4496 97.4403 30.924 97.4595 31.449 97.4303C31.9939 97.3853 32.3858 97.2689 32.6247 97.0809C32.6645 97.0495 32.7398 97.0427 32.8504 97.0604C32.961 97.078 33.1467 97.3244 33.4077 97.7995C33.6886 98.2589 33.9308 98.8534 34.1343 99.5831C34.3392 100.294 34.4269 100.836 34.3974 101.208C34.3398 101.934 33.7411 102.422 32.6011 102.674C31.4612 102.925 30.1355 102.93 28.6239 102.689C26.1907 102.301 24.2594 101.116 22.8298 99.1353C21.4002 97.1547 20.8101 94.5919 21.0596 91.4471C21.3105 88.2837 22.3093 85.9275 24.0562 84.3785C25.8215 82.8325 27.9115 82.2522 30.3263 82.6376Z" fill="white"/>
<path d="M48.7731 104.712C47.1574 104.549 46.2977 104.199 46.194 103.664L45.4566 99.9631L41.0273 99.5138L40.0447 102.899C39.9041 103.466 38.9981 103.665 37.3267 103.495C36.4353 103.405 35.7783 103.291 35.3559 103.155C34.9344 102.999 34.725 102.894 34.7279 102.838L40.6128 84.4061C40.6203 84.257 41.8962 84.3115 44.4405 84.5696C46.9848 84.8277 48.2532 85.0313 48.2456 85.1804L52.1092 104.629C52.1027 104.76 51.6704 104.819 50.8123 104.807C49.9543 104.795 49.2745 104.763 48.7731 104.712ZM41.9027 96.0329L44.8277 96.3297L43.8659 90.4138L43.6988 90.3969L41.9027 96.0329Z" fill="white"/>
<path d="M61.102 104.733C61.0936 105.107 60.1664 105.252 58.3203 105.169C56.4741 105.086 55.5552 104.858 55.5635 104.485L55.8769 90.4323L52.5203 90.2816C52.2033 90.2674 51.9891 89.8281 51.8777 88.9638C51.8309 88.5508 51.8123 88.1296 51.8219 87.7004C51.8314 87.2712 51.8688 86.8525 51.9339 86.4445C52.0835 85.5919 52.3169 85.1727 52.6339 85.1869L64.8017 85.733C65.1187 85.7473 65.3329 86.1865 65.4443 87.0508C65.491 87.4639 65.5097 87.8851 65.5001 88.3143C65.4905 88.7435 65.4532 89.1622 65.3881 89.5702C65.2384 90.4228 65.005 90.842 64.688 90.8278L61.4153 90.6809L61.102 104.733Z" fill="white"/>
<path d="M75.9239 86.1527C75.922 85.7794 76.929 85.5824 78.9449 85.5617C80.9795 85.5408 81.9977 85.717 81.9996 86.0904L82.0651 98.9422C82.0748 100.846 81.4014 102.412 80.045 103.639C78.6885 104.848 76.8063 105.464 74.3984 105.489C72.0092 105.514 70.0555 104.918 68.5373 103.701C67.0377 102.466 66.2825 100.793 66.2718 98.6842L66.2086 86.2803C66.2067 85.907 67.2137 85.71 69.2296 85.6893C71.2641 85.6684 72.2823 85.8447 72.2843 86.218L72.3486 98.8458C72.3505 99.2192 72.548 99.5158 72.9411 99.7358C73.3529 99.9556 73.7828 100.063 74.2308 100.059C74.6788 100.054 75.0795 99.9472 75.4331 99.7382C75.8054 99.5291 75.9905 99.2192 75.9884 98.8085L75.9239 86.1527Z" fill="white"/>
<path d="M83.136 103.657L82.558 86.8674C82.5419 86.4011 82.6412 86.0295 82.8556 85.7529C83.0881 85.4563 83.3905 85.2951 83.763 85.2693L88.4278 84.9461C91.3887 84.7409 93.6583 85.3317 95.2367 86.7184C96.8337 88.1037 97.6874 90.4008 97.7979 93.6096C98.0342 100.475 95.2287 104.11 89.3814 104.515L84.6048 104.846C83.6551 104.912 83.1655 104.516 83.136 103.657ZM88.0521 90.3016L88.3402 98.6687C88.3536 99.0604 88.3902 99.3104 88.45 99.4184C88.509 99.5078 88.6782 99.5429 88.9576 99.5235C89.9818 99.4526 90.7414 99.0166 91.2365 98.2156C91.7502 97.4133 91.9766 96.126 91.9156 94.3537C91.8539 92.5628 91.5345 91.4161 90.9572 90.9138C90.3985 90.4102 89.5233 90.1997 88.3315 90.2823L88.0521 90.3016Z" fill="white"/>
<path d="M107.945 83.7841C108.144 83.1011 109.308 82.6228 111.437 82.3491C111.974 82.2801 112.606 82.2364 113.333 82.2181C114.078 82.1975 114.426 82.2466 114.378 82.3655L109.347 94.7882L109.783 101.606C109.803 101.923 109.308 102.212 108.298 102.473C107.785 102.614 107.278 102.717 106.778 102.781C106.278 102.846 105.776 102.882 105.273 102.89C104.246 102.891 103.722 102.723 103.701 102.388L103.276 95.7377L96.5522 84.7132C96.471 84.611 96.844 84.4597 97.6712 84.2595C98.4972 84.0406 99.1972 83.8943 99.7712 83.8205C102.048 83.5278 103.32 83.7025 103.585 84.3445L105.976 89.7843L107.945 83.7841Z" fill="white"/>
</svg>
