<svg width="352" height="275" viewBox="0 0 352 275" fill="none" xmlns="http://www.w3.org/2000/svg">
<path fill-rule="evenodd" clip-rule="evenodd" d="M167.808 96C88.7937 96 73.1008 107.056 62.0033 115.901C45.3571 129.168 45.4623 167.863 57.9427 197.714C81.979 255.205 132.296 274 166.698 274C201.1 274 232.905 260.733 264.356 214.298C327.612 214.298 366.453 135.801 284.331 110.373C265.48 104.535 258.582 103.363 255.591 102.854C255.084 102.768 254.69 102.701 254.368 102.634C240.311 99.6853 201.1 96 167.808 96ZM284.5 143C284.5 153.927 282.333 178.381 278 186.71C293.167 189.128 304 176.025 304 162.669C304 147.728 290.296 144.407 285.219 143.176C284.955 143.112 284.714 143.054 284.5 143Z" fill="black"/>
<path d="M62.0033 115.901L61.6917 115.51L61.6917 115.51L62.0033 115.901ZM167.808 96L167.808 95.5H167.808V96ZM57.9427 197.714L58.404 197.521L58.404 197.521L57.9427 197.714ZM264.356 214.298V213.798H264.091L263.942 214.018L264.356 214.298ZM284.331 110.373L284.479 109.895L284.479 109.895L284.331 110.373ZM255.591 102.854L255.507 103.347L255.507 103.347L255.591 102.854ZM254.368 102.634L254.471 102.144L254.471 102.144L254.368 102.634ZM278 186.71L277.556 186.479L277.236 187.094L277.921 187.204L278 186.71ZM284.5 143L284.622 142.515L284 142.358V143H284.5ZM285.219 143.176L285.101 143.662L285.101 143.662L285.219 143.176ZM62.315 116.292C67.8252 111.9 74.46 106.965 89.5603 103.118C104.688 99.2635 128.317 96.5 167.808 96.5V95.5C128.284 95.5 104.56 98.2644 89.3134 102.149C74.0393 106.041 67.2789 111.057 61.6917 115.51L62.315 116.292ZM58.404 197.521C52.1905 182.66 49.0583 165.594 49.5503 150.605C50.0432 135.587 54.1667 122.786 62.315 116.292L61.6917 115.51C53.1938 122.283 49.0467 135.462 48.5508 150.572C48.0539 165.71 51.2145 182.918 57.4814 197.907L58.404 197.521ZM166.698 273.5C132.457 273.5 82.3481 254.791 58.404 197.521L57.4814 197.907C81.61 255.618 132.135 274.5 166.698 274.5V273.5ZM263.942 214.018C248.247 237.189 232.487 252.053 216.388 261.127C200.294 270.198 183.83 273.5 166.698 273.5V274.5C183.968 274.5 200.608 271.169 216.879 261.998C233.146 252.829 249.013 237.842 264.77 214.579L263.942 214.018ZM284.184 110.85C304.638 117.184 317.491 126.801 324.328 137.606C331.16 148.403 332.019 160.443 328.384 171.718C321.105 194.294 295.789 213.798 264.356 213.798V214.798C296.179 214.798 321.911 195.054 329.336 172.025C333.053 160.496 332.179 148.144 325.173 137.071C318.173 126.007 305.086 116.276 284.479 109.895L284.184 110.85ZM255.507 103.347C258.474 103.851 265.35 105.019 284.184 110.85L284.479 109.895C265.61 104.052 258.691 102.874 255.675 102.361L255.507 103.347ZM254.266 103.123C254.599 103.193 255.004 103.262 255.507 103.347L255.675 102.361C255.165 102.275 254.781 102.209 254.471 102.144L254.266 103.123ZM167.808 96.5C201.082 96.5 240.255 100.184 254.266 103.123L254.471 102.144C240.368 99.1862 201.119 95.5 167.808 95.5L167.808 96.5ZM278.444 186.941C279.558 184.799 280.517 181.658 281.332 178.012C282.149 174.358 282.828 170.163 283.371 165.893C284.457 157.355 285 148.488 285 143H284C284 148.439 283.46 157.263 282.379 165.767C281.839 170.017 281.164 174.18 280.356 177.794C279.546 181.418 278.609 184.456 277.556 186.479L278.444 186.941ZM303.5 162.669C303.5 175.806 292.86 188.573 278.079 186.216L277.921 187.204C293.473 189.683 304.5 176.244 304.5 162.669H303.5ZM285.101 143.662C287.643 144.278 292.252 145.399 296.226 148.19C300.174 150.963 303.5 155.385 303.5 162.669H304.5C304.5 155.013 300.975 150.303 296.801 147.372C292.654 144.46 287.872 143.305 285.337 142.69L285.101 143.662ZM284.378 143.485C284.595 143.54 284.838 143.598 285.101 143.662L285.337 142.69C285.072 142.626 284.834 142.569 284.622 142.515L284.378 143.485Z" fill="black"/>
<ellipse cx="166.5" cy="130.5" rx="78.5" ry="12.5" fill="#E1BFB1"/>
<path d="M110.488 190.24C110.995 190.64 111.862 191.187 113.088 191.88C114.342 192.573 115.528 192.92 116.648 192.92C117.795 192.92 118.368 192.48 118.368 191.6C118.368 191.2 118.208 190.853 117.888 190.56C117.568 190.24 116.982 189.88 116.128 189.48C115.275 189.08 114.635 188.773 114.208 188.56C113.782 188.32 113.208 187.947 112.488 187.44C111.795 186.907 111.262 186.36 110.888 185.8C109.822 184.28 109.288 182.347 109.288 180C109.288 177.653 110.155 175.68 111.888 174.08C113.648 172.453 115.942 171.64 118.768 171.64C120.688 171.64 122.462 171.853 124.088 172.28C125.715 172.68 126.555 173.213 126.608 173.88C126.608 173.96 126.608 174.04 126.608 174.12C126.608 175.053 126.315 176.24 125.728 177.68C125.142 179.093 124.728 179.88 124.488 180.04C122.782 179.16 121.248 178.72 119.888 178.72C118.555 178.72 117.888 179.2 117.888 180.16C117.888 180.747 118.382 181.267 119.368 181.72C119.582 181.827 119.888 181.973 120.288 182.16C120.688 182.347 121.142 182.573 121.648 182.84C122.182 183.08 122.742 183.4 123.328 183.8C123.942 184.173 124.595 184.68 125.288 185.32C126.702 186.653 127.408 188.413 127.408 190.6C127.408 193.453 126.622 195.787 125.048 197.6C123.475 199.413 121.048 200.347 117.768 200.4C116.168 200.4 114.715 200.267 113.408 200C112.128 199.733 111.008 199.213 110.048 198.44C109.088 197.667 108.608 196.733 108.608 195.64C108.608 194.547 108.808 193.467 109.208 192.4C109.608 191.307 110.035 190.587 110.488 190.24ZM144.338 199.36C144.338 199.893 143.018 200.16 140.378 200.16C137.738 200.16 136.418 199.893 136.418 199.36V179.28H131.618C131.165 179.28 130.845 178.667 130.658 177.44C130.578 176.853 130.538 176.253 130.538 175.64C130.538 175.027 130.578 174.427 130.658 173.84C130.845 172.613 131.165 172 131.618 172H149.018C149.472 172 149.792 172.613 149.978 173.84C150.058 174.427 150.098 175.027 150.098 175.64C150.098 176.253 150.058 176.853 149.978 177.44C149.792 178.667 149.472 179.28 149.018 179.28H144.338V199.36ZM167.057 172.8C167.057 172.267 168.497 172 171.377 172C174.283 172 175.737 172.267 175.737 172.8V191.16C175.737 193.88 174.763 196.107 172.817 197.84C170.87 199.547 168.177 200.4 164.737 200.4C161.323 200.4 158.537 199.52 156.377 197.76C154.243 195.973 153.177 193.573 153.177 190.56V172.84C153.177 172.307 154.617 172.04 157.497 172.04C160.403 172.04 161.857 172.307 161.857 172.84V190.88C161.857 191.413 162.137 191.84 162.697 192.16C163.283 192.48 163.897 192.64 164.537 192.64C165.177 192.64 165.75 192.493 166.257 192.2C166.79 191.907 167.057 191.467 167.057 190.88V172.8ZM180.694 198.16V174.16C180.694 173.493 180.854 172.973 181.174 172.6C181.52 172.2 181.96 172 182.494 172H189.174C193.414 172 196.627 173.067 198.814 175.2C201.027 177.333 202.134 180.693 202.134 185.28C202.134 195.093 197.947 200 189.574 200H182.734C181.374 200 180.694 199.387 180.694 198.16ZM188.374 179.6V191.56C188.374 192.12 188.414 192.48 188.494 192.64C188.574 192.773 188.814 192.84 189.214 192.84C190.68 192.84 191.787 192.293 192.534 191.2C193.307 190.107 193.694 188.293 193.694 185.76C193.694 183.2 193.294 181.533 192.494 180.76C191.72 179.987 190.48 179.6 188.774 179.6H188.374ZM220.862 173.32C221.209 172.387 222.916 171.92 225.982 171.92C226.756 171.92 227.662 171.973 228.702 172.08C229.769 172.187 230.262 172.32 230.182 172.48L221.862 189.2V198.96C221.862 199.413 221.129 199.733 219.662 199.92C218.916 200.027 218.182 200.08 217.462 200.08C216.742 200.08 216.022 200.04 215.302 199.96C213.836 199.773 213.102 199.44 213.102 198.96V189.44L204.502 172.56C204.396 172.4 204.942 172.253 206.142 172.12C207.342 171.96 208.356 171.88 209.182 171.88C212.462 171.88 214.262 172.36 214.582 173.32L217.502 181.48L220.862 173.32ZM135.927 211.64C137.873 211.64 139.58 211.92 141.047 212.48C142.54 213.013 143.287 213.747 143.287 214.68C143.287 215.613 142.927 216.773 142.207 218.16C141.513 219.52 140.927 220.2 140.447 220.2C140.313 220.2 140.153 220.133 139.967 220C139.807 219.84 139.407 219.68 138.767 219.52C138.153 219.333 137.62 219.24 137.167 219.24C135.62 219.24 134.367 219.787 133.407 220.88C132.473 221.973 132.007 223.653 132.007 225.92C132.007 228.16 132.487 229.827 133.447 230.92C134.433 232.013 135.673 232.56 137.167 232.56C137.78 232.56 138.46 232.48 139.207 232.32C139.98 232.133 140.527 231.88 140.847 231.56C140.9 231.507 141.007 231.48 141.167 231.48C141.327 231.48 141.62 231.787 142.047 232.4C142.5 232.987 142.913 233.773 143.287 234.76C143.66 235.72 143.847 236.467 143.847 237C143.847 238.04 143.047 238.867 141.447 239.48C139.847 240.093 137.953 240.4 135.767 240.4C132.247 240.4 129.353 239.16 127.087 236.68C124.82 234.2 123.687 230.707 123.687 226.2C123.687 221.667 124.847 218.107 127.167 215.52C129.513 212.933 132.433 211.64 135.927 211.64ZM167.309 240.08C164.989 240.08 163.735 239.707 163.549 238.96L162.229 233.8H155.869L154.709 238.76C154.549 239.587 153.269 240 150.869 240C149.589 240 148.642 239.933 148.029 239.8C147.415 239.64 147.109 239.52 147.109 239.44L154.189 212.36C154.189 212.147 156.015 212.04 159.669 212.04C163.322 212.04 165.149 212.147 165.149 212.36L172.069 239.48C172.069 239.667 171.455 239.813 170.229 239.92C169.002 240.027 168.029 240.08 167.309 240.08ZM156.869 228.72H161.069L159.269 220.44H159.029L156.869 228.72ZM191.28 212C191.733 212 191.96 213.187 191.96 215.56C191.96 217.907 191.733 219.08 191.28 219.08H183.96V223.64H188.84C189.293 223.64 189.52 224.68 189.52 226.76C189.52 228.813 189.306 229.84 188.88 229.84H183.96V239.48C183.96 239.853 183.453 240.093 182.44 240.2C181.453 240.333 180.626 240.4 179.96 240.4L178.08 240.32C176.773 240.16 176.12 239.893 176.12 239.52V213.04C176.12 212.613 176.2 212.333 176.36 212.2C176.546 212.067 176.813 212 177.16 212H191.28ZM209.787 223.12C210.293 223.12 210.547 224.053 210.547 225.92C210.547 226.48 210.48 227.147 210.347 227.92C210.24 228.667 210.027 229.04 209.707 229.04H204.627V233.04H211.987C212.44 233.04 212.747 233.627 212.907 234.8C212.987 235.307 213.027 235.853 213.027 236.44C213.027 237 212.947 237.733 212.787 238.64C212.627 239.547 212.36 240 211.987 240H198.307C197.293 240 196.787 239.587 196.787 238.76V213.04C196.787 212.347 197.093 212 197.707 212H212.027C212.587 212 212.867 213.187 212.867 215.56C212.867 217.907 212.587 219.08 212.027 219.08H204.627V223.12H209.787Z" fill="white"/>
<path d="M31.3412 44.6853C34.964 43.2593 38.3453 42.5302 41.485 42.4979C44.6548 42.3965 46.5815 43.2143 47.2652 44.9513C47.949 46.6882 48.1287 49.1107 47.8046 52.2187C47.5106 55.2576 46.9169 56.9529 46.0236 57.3045C45.7755 57.4022 45.4289 57.3953 44.9838 57.2839C44.5688 57.1034 43.7072 57.0986 42.399 57.2697C41.1208 57.3716 40.0599 57.5886 39.2162 57.9207C36.3379 59.0537 34.4059 60.9891 33.4202 63.7271C32.4842 66.4455 32.8464 69.9139 34.5068 74.1322C36.1477 78.3009 38.2619 81.0509 40.8494 82.3824C43.4865 83.6943 46.1946 83.8033 48.9737 82.7094C50.1152 82.2601 51.322 81.6131 52.5944 80.7684C53.8968 79.8545 54.7286 78.9825 55.0897 78.1526C55.1499 78.0143 55.3289 77.8865 55.6267 77.7693C55.9244 77.6521 56.695 78.0079 57.9383 78.8368C59.2117 79.5965 60.5572 80.7577 61.9748 82.3204C63.3728 83.8335 64.2671 85.0864 64.6578 86.0789C65.4197 88.0143 64.5364 90.1388 62.0081 92.4523C59.4798 94.7658 56.1809 96.7235 52.1115 98.3253C45.5607 100.904 39.2678 100.716 33.2328 97.7608C27.1978 94.8059 22.5296 89.135 19.2283 80.748C15.9074 72.3114 15.4583 64.8365 17.881 58.3231C20.3533 51.7903 24.8401 47.2443 31.3412 44.6853Z" fill="black"/>
<path d="M112.861 80.368C108.338 81.4032 105.728 81.2346 105.03 79.8622L100.155 70.3914L87.7552 73.2293L87.7069 83.4169C87.7638 85.0999 85.4528 86.4769 80.7737 87.5478C78.2783 88.119 76.4029 88.4114 75.1477 88.4251C73.8805 88.3869 73.2291 88.2898 73.1934 88.1338L74.9131 32.1797C74.8179 31.7638 78.3315 30.7408 85.454 29.1106C92.5765 27.4805 96.1854 26.8733 96.2806 27.2893L121.873 77.0743C121.956 77.4382 120.826 77.9978 118.482 78.7532C116.138 79.5085 114.264 80.0468 112.861 80.368ZM87.438 62.8792L95.6263 61.0051L88.4224 45.6657L87.9545 45.7728L87.438 62.8792Z" fill="black"/>
<path d="M155.439 74.0147C155.525 75.0779 152.936 75.8219 147.673 76.2468C142.41 76.6717 139.736 76.3525 139.65 75.2893L136.419 35.2595L126.85 36.032C125.946 36.105 125.209 34.9338 124.64 32.5184C124.386 31.3618 124.21 30.1721 124.111 28.9494C124.012 27.7267 123.995 26.5242 124.06 25.3418C124.235 22.8664 124.774 21.5922 125.678 21.5192L160.365 18.7189C161.269 18.646 162.006 19.8172 162.575 22.2325C162.829 23.3891 163.005 24.5788 163.104 25.8015C163.203 27.0242 163.22 28.2267 163.154 29.4091C162.98 31.8846 162.441 33.1588 161.537 33.2317L152.207 33.9849L155.439 74.0147Z" fill="black"/>
<path d="M205.457 21.4054C205.522 20.3407 208.429 19.9843 214.179 20.336C219.981 20.6911 222.85 21.4009 222.785 22.4656L220.542 59.1171C220.21 64.5469 217.995 68.873 213.897 72.0955C209.802 75.2646 204.322 76.6391 197.454 76.219C190.64 75.802 185.185 73.7049 181.088 69.9277C177.048 66.1004 175.211 61.1791 175.579 55.1637L177.744 19.7898C177.809 18.7252 180.716 18.3687 186.465 18.7205C192.268 19.0755 195.137 19.7854 195.071 20.8501L192.868 56.8627C192.803 57.9274 193.31 58.8133 194.388 59.5205C195.521 60.231 196.725 60.6253 198.003 60.7035C199.281 60.7817 200.443 60.5589 201.49 60.0352C202.591 59.5148 203.177 58.669 203.249 57.4979L205.457 21.4054Z" fill="black"/>
<path d="M231.099 74.7575L241.353 27.8654C241.638 26.5629 242.173 25.6152 242.957 25.0225C243.806 24.3891 244.751 24.1863 245.793 24.4142L258.844 27.2681C267.129 29.0796 272.951 32.5366 276.312 37.639C279.725 42.7528 280.452 49.7905 278.492 58.752C274.3 77.9257 264.023 85.7238 247.663 82.1464L234.299 79.2241C231.642 78.643 230.575 77.1542 231.099 74.7575ZM254.034 41.7755L248.925 65.1433C248.685 66.2375 248.61 66.958 248.698 67.3047C248.797 67.5994 249.237 67.8322 250.019 68.0031C252.885 68.6297 255.28 68.0345 257.206 66.2173C259.184 64.4115 260.715 61.0337 261.797 56.084C262.891 51.0822 262.821 47.6549 261.589 45.8021C260.408 43.9608 258.15 42.6755 254.816 41.9464L254.034 41.7755Z" fill="black"/>
<path d="M327.53 50.8609C328.848 49.3687 332.369 49.726 338.092 51.9328C339.535 52.4893 341.188 53.2412 343.052 54.1887C344.966 55.1553 345.79 55.7591 345.526 56.0001L317.969 81.2135L310.945 99.4262C310.619 100.272 309.02 100.342 306.149 99.6345C304.679 99.2962 303.272 98.8681 301.929 98.3499C300.585 97.8318 299.27 97.2391 297.984 96.5717C295.382 95.1679 294.253 94.0182 294.599 93.1225L301.449 75.3576L297.548 37.67C297.464 37.2946 298.59 37.4143 300.925 38.0291C303.279 38.594 305.228 39.1739 306.771 39.7688C312.891 42.1291 315.905 44.3201 315.811 46.3418L315.388 63.6701L327.53 50.8609Z" fill="black"/>
</svg>
